<svg width="100%" height="100%" id="svg" viewBox="0 0 1440 400" xmlns="http://www.w3.org/2000/svg" class="transition duration-300 ease-in-out delay-150">
  <path d="M 0,400 C 0,400 0,133 0,133 C 83.6267942583732,133.69856459330143 167.2535885167464,134.39712918660285 274,147 C 380.7464114832536,159.60287081339715 510.6124401913876,184.11004784688998 597,175 C 683.3875598086124,165.88995215311002 726.2966507177033,123.16267942583733 826,115 C 925.7033492822967,106.83732057416267 1082.2009569377992,133.23923444976077 1194,142 C 1305.7990430622008,150.76076555023923 1372.8995215311004,141.8803827751196 1440,133 C 1440,133 1440,400 1440,400 Z" stroke="none" stroke-width="0" fill="#fafafa" fill-opacity="0.53" class="transition-all duration-300 ease-in-out delay-150 path-0"></path>
  <path d="M 0,400 C 0,400 0,266 0,266 C 79.74162679425837,240.22966507177034 159.48325358851673,214.45933014354068 251,225 C 342.51674641148327,235.54066985645932 445.8086124401914,282.39234449760767 551,304 C 656.1913875598086,325.60765550239233 763.2822966507177,321.97129186602865 861,302 C 958.7177033492823,282.02870813397135 1047.0622009569379,245.7224880382775 1142,237 C 1236.9377990430621,228.2775119617225 1338.468899521531,247.13875598086125 1440,266 C 1440,266 1440,400 1440,400 Z" stroke="none" stroke-width="0" fill="#fafafa" fill-opacity="1" class="transition-all duration-300 ease-in-out delay-150 path-1"></path>
</svg>